<?xml version="1.0" encoding="UTF-8"?>
<svg width="70px" height="48px" viewBox="0 0 70 48" version="1.1" xmlns="http://www.w3.org/2000/svg" xmlns:xlink="http://www.w3.org/1999/xlink">
    <!-- Generator: Sketch 48.2 (47327) - http://www.bohemiancoding.com/sketch -->
    <title>Group 14 Copy 12</title>
    <desc>Created with Sketch.</desc>
    <defs>
        <linearGradient x1="96.4525016%" y1="50%" x2="3.40306717%" y2="50%" id="linearGradient-1">
            <stop stop-color="#FFFFFF" offset="0%"></stop>
            <stop stop-color="#FFFFFF" stop-opacity="0.5252774" offset="100%"></stop>
        </linearGradient>
    </defs>
    <g id="1600_home" stroke="none" stroke-width="1" fill="none" fill-rule="evenodd" transform="translate(-45.000000, -16.000000)">
        <g id="Group-4">
            <g id="Group-14-Copy-12" transform="translate(45.000000, 16.000000)">
                <polygon id="Fill-1" fill="#FFFFFF" points="18.469876 32.5818182 21.938781 32.5818182 19.9270041 41.0078545 27.7852273 41.0078545 27.0902893 43.9211636 15.7644628 43.9211636"></polygon>
                <path d="M5.10146694,37.0766545 L11.6000413,37.0766545 C12.0382645,37.0766545 12.3260744,36.7841455 12.4663636,36.1992727 C12.6078099,35.6043636 12.4601446,35.3069091 12.0230785,35.3069091 L5.52334711,35.3069091 L5.10146694,37.0766545 Z M4.11871901,41.1962182 L10.6949587,41.1962182 C11.2782438,41.1962182 11.652686,40.8523636 11.8166942,40.1632 C11.9669628,39.5355636 11.7440909,39.2229818 11.1505372,39.2229818 L4.57429752,39.2229818 L4.11871901,41.1962182 Z M2.70657025,32.5818182 L13.7983884,32.5818182 C15.7977273,32.5818182 16.5800207,33.4906182 16.1470041,35.3069091 C15.7625826,36.8733091 15.0252686,37.8235636 13.9360744,38.1573818 L13.9247934,38.2050909 C15.1416942,38.3821091 15.5385537,39.3636364 15.1116116,41.1496727 C14.6709298,42.9973818 13.3313843,43.9213091 11.0918182,43.9213091 L0,43.9213091 L2.70657025,32.5818182 Z" id="Fill-2" fill="#FFFFFF"></path>
                <path d="M47.0780204,36.5396364 C47.7414295,33.8045091 49.3063055,32.4363636 51.7751072,32.4363636 L58.2587849,32.4363636 C60.0800865,32.4363636 61.2420287,32.7652364 61.7402725,33.4229818 C61.9629997,33.7153455 62.07957,34.0970182 62.093165,34.5665455 C62.0944667,34.9530182 62.0218634,35.4539636 61.8741981,36.0701091 L58.4389915,36.0865455 C58.4865741,35.4701091 58.1673799,35.1614545 57.4824212,35.1614545 L53.170913,35.1614545 C51.7025039,35.1614545 50.7899006,35.9082182 50.4342601,37.4018909 L50.0037022,39.2032 C49.6706237,40.6027636 50.2378551,41.3018182 51.7062642,41.3018182 L55.9551485,41.3018182 C56.7989088,41.3018182 57.3447353,40.7796364 57.5939295,39.7354182 L53.2822766,39.7354182 L53.8431444,37.3856 L53.9332477,37.0103273 L57.1131857,37.0103273 L61.7126485,37.0103273 L61.6224006,37.3856 L61.0628344,39.7354182 L60.8525452,40.6126545 C60.4919873,42.1265455 59.8159956,43.1031273 58.8258716,43.5410909 C58.3601691,43.7506909 57.7441981,43.8862545 56.9792601,43.9489455 C56.6487849,43.9803636 56.2593014,44.0004364 55.8086402,44.0117818 C55.4619667,44.0218182 55.0074006,44.0269091 54.4453758,44.0269091 L49.0095287,44.0269091 C46.5408716,44.0269091 45.663413,42.5344 46.3757063,39.5470545 L47.0780204,36.5396364 Z" id="Fill-4" fill="#FFFFFF"></path>
                <path d="M33.0886568,39.2030545 C32.7845039,40.4770909 33.2940287,41.1134545 34.6160741,41.1134545 L39.0526857,41.1134545 C40.3760328,41.1134545 41.1898551,40.4770909 41.4927064,39.2030545 L41.9610122,37.2449455 C42.2614047,35.9809455 41.689256,35.3496727 40.2408055,35.3496727 L36.1796485,35.3496727 C34.7324998,35.3496727 33.8573551,35.9809455 33.5556609,37.2449455 L33.0886568,39.2030545 Z M30.2094006,36.5394909 C30.8616733,33.8045091 32.5730576,32.4363636 35.3434088,32.4363636 L42.482975,32.4363636 C45.2747312,32.4363636 46.3438221,33.8045091 45.6903923,36.5394909 L44.8829336,39.9236364 C44.2306609,42.6586182 42.5079956,44.0267636 39.7175411,44.0267636 L32.577975,44.0267636 C29.8074791,44.0267636 28.7483675,42.6586182 29.4019419,39.9236364 L30.2094006,36.5394909 Z" id="Fill-6" fill="#FFFFFF"></path>
                <path d="M54.4757645,45.2658909 L55.7192769,45.2658909 L56.2340083,46.9688727 L57.5494008,45.2658909 L58.7917562,45.2658909 L58.1705785,47.9117091 L57.3832231,47.9117091 L57.8230372,46.0370909 L56.3151446,47.9117091 L55.7100207,47.9117091 L55.0817562,46.0370909 L54.6419421,47.9117091 L53.8545868,47.9117091 L54.4757645,45.2658909 Z M50.9501653,46.8154182 C50.8803099,47.1130182 50.9999174,47.2613818 51.3089876,47.2613818 L52.343657,47.2613818 C52.6527273,47.2613818 52.8421901,47.1130182 52.9120455,46.8154182 L53.0196488,46.3591273 C53.0883471,46.0644364 52.9545661,45.9162182 52.616281,45.9162182 L51.6686777,45.9162182 C51.3312603,45.9162182 51.127624,46.0644364 51.057624,46.3591273 L50.9501653,46.8154182 Z M50.276343,46.1946182 C50.4263223,45.5565091 50.8246281,45.2363636 51.4711157,45.2363636 L53.1370868,45.2363636 C53.7886364,45.2363636 54.0389876,45.5565091 53.8890083,46.1946182 L53.703595,46.984 C53.5536157,47.6221091 53.1524174,47.9412364 52.5017355,47.9412364 L50.8356198,47.9412364 C50.1891322,47.9412364 49.9409504,47.6221091 50.0909298,46.984 L50.276343,46.1946182 Z M47.6364463,45.9162182 C47.5584917,45.9162182 47.4883471,45.9425455 47.4245661,45.9933091 C47.3688843,46.0442182 47.3304132,46.1102545 47.3091529,46.1904 L47.1186777,47.0023273 C47.1085537,47.0846545 47.1196901,47.1435636 47.150062,47.1770182 C47.1925826,47.2258909 47.2502893,47.2542545 47.3233264,47.2613818 L49.6571901,47.2613818 C49.6389669,47.3396364 49.6146694,47.4056727 49.5853099,47.4584727 C49.532376,47.5591273 49.4392355,47.6647273 49.3064669,47.7765818 C49.1655992,47.8862545 48.9619628,47.9421091 48.6944008,47.9451636 L46.9636364,47.9412364 C46.6667149,47.9320727 46.4609091,47.8619636 46.3453512,47.7328 C46.223719,47.5986909 46.1903099,47.4148364 46.245124,47.1810909 L46.5246901,45.9933091 C46.5795041,45.7617455 46.6999793,45.5768727 46.8885744,45.4376727 C47.0721074,45.3064727 47.3079959,45.2394182 47.5959504,45.2363636 L49.344938,45.2363636 C49.5466942,45.2363636 49.7148967,45.3095273 49.8476653,45.4558545 C49.9156405,45.5290182 49.9581612,45.6286545 49.9743595,45.7556364 C49.9782645,45.8410182 49.9782645,45.8948364 49.9733471,45.9162182 L47.6364463,45.9162182 Z M45.1546281,47.1668364 L45.8802273,47.1668364 L45.704938,47.9117091 L44.9793388,47.9117091 L45.1546281,47.1668364 Z" id="Fill-8" fill="#FFFFFF"></path>
                <path d="M5.71267536,28.0816525 C5.2673867,28.0687795 4.3704983,28.0566727 3.02201018,28.045332 L3.02200999,28.045354 C2.05804402,28.0372471 1.28316713,27.2492263 1.29127403,26.2852604 C1.29216898,26.1788446 1.30279407,26.0727336 1.32301656,25.9682531 C1.65877535,24.2335389 1.83828547,23.3089853 1.86154691,23.1945922 C2.45174568,20.292164 2.97543348,17.8831268 3.43385535,15.9633607 L4.7853783,10.1678872 C6.37479243,3.61206873 10.5087369,9.55990273e-09 16.668599,9.55990273e-09 L65.4109918,9.55990273e-09 C65.5774541,9.55990273e-09 66.4841206,9.55991942e-09 68.1309914,9.55995279e-09 C69.0949778,2.71288e-06 69.8764432,0.781468121 69.8764432,1.74545456 C69.8764432,1.82522248 69.8709751,1.90489659 69.8600773,1.98391658 C69.6540599,3.47774634 69.4792676,4.50857452 69.3357004,5.07640113 L67.4654507,12.4734747 C66.4494043,16.6841997 62.3467871,19.9989818 58.0883288,19.9989818 L45.5175927,19.9989818 L43.7461483,27.4237982 C43.652526,27.816201 43.3021613,28.0933023 42.8987452,28.0940044 C19.7842315,28.1342283 7.38887486,28.130111 5.71267536,28.0816525 Z M27.9035863,16.9986909 C27.8946188,17.0362822 27.8854513,17.0730678 27.8668246,17.1441455 C27.3700731,18.9998264 26.326312,18.7134545 24.7378219,18.7134545 C17.2406328,18.7100436 13.4776602,18.7049607 13.4489038,18.6982059 C13.137774,18.6251217 12.9444633,18.3122135 13.0171322,17.9993058 L14.5762054,11.286037 C14.8815386,9.97129197 16.0461893,9.04061432 17.3886467,9.03860235 L35.9079872,9.01084711 L58.2366792,9.07607273 C58.2366792,9.07607273 58.2366792,9.1265538 58.2234093,9.22148912 C58.1587947,9.66152397 57.7795564,10.9390784 55.553715,10.7773091 L38.0513636,10.7773091 L34.5661157,25.1837091 L41.3059298,25.1837091 L43.2370041,17.0898909 L58.0882851,17.0898909 C61.0045661,17.0898909 63.9597521,14.6974545 64.6577273,11.7735273 L66.5322577,4.35949123 C66.6897332,3.73665309 66.315351,3.10335443 65.6960518,2.94497907 C65.602859,2.92114658 65.5070756,2.90909091 65.4109171,2.90909091 L16.6687309,2.90909091 C11.9056938,2.90909091 8.88238797,5.55010909 7.60170616,10.8321455 L4.72814527,23.7575099 C4.71203542,23.8299725 4.70285888,23.9038195 4.70074119,23.9780407 C4.68241225,24.6204346 5.18535799,25.1561412 5.82410192,25.1745754 C8.32331853,25.2467009 10.1587872,25.2827636 11.3305078,25.2827636 L21.8258797,25.2827636 C22.9108797,25.2827636 23.7880491,25.2730182 24.4550739,25.2536727 C25.3250119,25.2318545 26.0789582,25.1930182 26.7169128,25.1325091 C28.1935657,25.0113455 29.3800946,24.7496727 30.2814169,24.3450182 C32.1929665,23.4993455 33.4956318,21.6144 34.1940409,18.6923636 L34.5975533,16.9986909 L35.6802392,12.4628364 L35.9963962,10.8656 L17.8786957,10.8656 C17.0696787,10.8656 16.3679701,11.427766 16.1870918,12.2208094 C15.5098372,15.1975322 15.1712099,16.6931896 15.1712099,16.7077818 C15.1712099,16.8684465 15.3007144,16.9986909 15.4604661,16.9986909 C23.6603107,16.9836587 27.8080175,16.9836587 27.9035863,16.9986909 Z" id="Combined-Shape" fill="#FFFFFF"></path>
                <path d="M27.9035863,16.9986909 C27.8080175,16.9836587 23.6603107,16.9836587 15.4604661,16.9986909 C15.3007144,16.9986909 15.1712099,16.8684465 15.1712099,16.7077818 C15.1712099,16.6931896 15.5098372,15.1975322 16.1870918,12.2208094 C16.3679701,11.427766 17.0696787,10.8656 17.8786957,10.8656 L35.9963962,10.8656 L35.6802392,12.4628364 L34.5975533,16.9986909 L34.1940409,18.6923636 C33.4956318,21.6144 32.1929665,23.4993455 30.2814169,24.3450182 C29.3800946,24.7496727 28.1935657,25.0113455 26.7169128,25.1325091 C26.0789582,25.1930182 25.3250119,25.2318545 24.4550739,25.2536727 C23.7880491,25.2730182 22.9108797,25.2827636 21.8258797,25.2827636 L11.3305078,25.2827636 C10.1587872,25.2827636 8.32331853,25.2467009 5.82410192,25.1745754 C5.18535799,25.1561412 4.68241225,24.6204346 4.70074119,23.9780407 C4.70285888,23.9038195 4.71203542,23.8299725 4.72814527,23.7575099 L7.60170616,10.8321455 C8.88238797,5.55010909 11.9056938,2.90909091 16.6687309,2.90909091 L65.4109171,2.90909091 C65.5070756,2.90909091 65.602859,2.92114658 65.6960518,2.94497907 C66.315351,3.10335443 66.6897332,3.73665309 66.5322577,4.35949123 L64.6577273,11.7735273 C63.9597521,14.6974545 61.0045661,17.0898909 58.0882851,17.0898909 L43.2370041,17.0898909 L41.3059298,25.1837091 L34.5661157,25.1837091 L38.0513636,10.7773091 L55.553715,10.7773091 C57.7795564,10.9390784 58.1587947,9.66152397 58.2234093,9.22148912 C58.2366792,9.1265538 58.2366792,9.07607273 58.2366792,9.07607273 L35.9079872,9.01084711 L17.3886467,9.03860235 C16.0461893,9.04061432 14.8815386,9.97129197 14.5762054,11.286037 L13.0171322,17.9993058 C12.9444633,18.3122135 13.137774,18.6251217 13.4489038,18.6982059 C13.4776602,18.7049607 17.2406328,18.7100436 24.7378219,18.7134545 C26.326312,18.7134545 27.3700731,18.9998264 27.8668246,17.1441455 C27.8854513,17.0730678 27.8946188,17.0362822 27.9035863,16.9986909 Z" id="Combined-Shape-Copy-2" fill-opacity="0.400000006" fill="url(#linearGradient-1)"></path>
            </g>
        </g>
    </g>
</svg>